{
  "accessors": [
    {
      "bufferView": 2,
      "componentType": 5126,
      "count": 1766,
      "max": [
        2.723361015319824,
        -13.98796272277832,
        114.51116943359375
      ],
      "min": [
        0.7268649935722351,
        -14.281227111816406,
        112.5132064819336
      ],
      "type": "VEC3"
    },
    {
      "bufferView": 2,
      "byteOffset": 21192,
      "componentType": 5126,
      "count": 1766,
      "type": "VEC3"
    },
    {
      "bufferView": 3,
      "componentType": 5126,
      "count": 1766,
      "type": "VEC4"
    },
    {
      "bufferView": 1,
      "componentType": 5126,
      "count": 1766,
      "type": "VEC2"
    },
    {
      "bufferView": 0,
      "componentType": 5125,
      "count": 10368,
      "type": "SCALAR"
    },
    {
      "bufferView": 2,
      "byteOffset": 42384,
      "componentType": 5126,
      "count": 65532,
      "max": [
        19.624935150146484,
        13.629500389099121,
        119.7049560546875
      ],
      "min": [
        -19.782148361206055,
        -14.053644180297852,
        3.684458017349243
      ],
      "type": "VEC3"
    },
    {
      "bufferView": 2,
      "byteOffset": 828768,
      "componentType": 5126,
      "count": 65532,
      "type": "VEC3"
    },
    {
      "bufferView": 1,
      "byteOffset": 14128,
      "componentType": 5126,
      "count": 65532,
      "type": "VEC2"
    },
    {
      "bufferView": 0,
      "byteOffset": 41472,
      "componentType": 5125,
      "count": 369828,
      "type": "SCALAR"
    },
    {
      "bufferView": 2,
      "byteOffset": 1615152,
      "componentType": 5126,
      "count": 39615,
      "max": [
        19.615079879760742,
        13.425482749938965,
        115.68584442138672
      ],
      "min": [
        -19.783063888549805,
        -13.797639846801758,
        3.4755759239196777
      ],
      "type": "VEC3"
    },
    {
      "bufferView": 2,
      "byteOffset": 2090532,
      "componentType": 5126,
      "count": 39615,
      "type": "VEC3"
    },
    {
      "bufferView": 1,
      "byteOffset": 538384,
      "componentType": 5126,
      "count": 39615,
      "type": "VEC2"
    },
    {
      "bufferView": 0,
      "byteOffset": 1520784,
      "componentType": 5125,
      "count": 212706,
      "type": "SCALAR"
    },
    {
      "bufferView": 2,
      "byteOffset": 2565912,
      "componentType": 5126,
      "count": 65532,
      "max": [
        19.575742721557617,
        13.579508781433105,
        119.62906646728516
      ],
      "min": [
        -19.73497200012207,
        -13.928332328796387,
        3.691235065460205
      ],
      "type": "VEC3"
    },
    {
      "bufferView": 2,
      "byteOffset": 3352296,
      "componentType": 5126,
      "count": 65532,
      "type": "VEC3"
    },
    {
      "bufferView": 1,
      "byteOffset": 855304,
      "componentType": 5126,
      "count": 65532,
      "type": "VEC2"
    },
    {
      "bufferView": 0,
      "byteOffset": 2371608,
      "componentType": 5125,
      "count": 369828,
      "type": "SCALAR"
    },
    {
      "bufferView": 2,
      "byteOffset": 4138680,
      "componentType": 5126,
      "count": 39615,
      "max": [
        19.56595230102539,
        13.375482559204102,
        115.66924285888672
      ],
      "min": [
        -19.73405647277832,
        -13.74766731262207,
        3.481627941131592
      ],
      "type": "VEC3"
    },
    {
      "bufferView": 2,
      "byteOffset": 4614060,
      "componentType": 5126,
      "count": 39615,
      "type": "VEC3"
    },
    {
      "bufferView": 1,
      "byteOffset": 1379560,
      "componentType": 5126,
      "count": 39615,
      "type": "VEC2"
    },
    {
      "bufferView": 0,
      "byteOffset": 3850920,
      "componentType": 5125,
      "count": 212706,
      "type": "SCALAR"
    },
    {
      "bufferView": 2,
      "byteOffset": 5089440,
      "componentType": 5126,
      "count": 31805,
      "max": [
        19.624935150146484,
        13.454462051391602,
        119.6902847290039
      ],
      "min": [
        -19.78310203552246,
        -14.045802116394043,
        3.4540579319000244
      ],
      "type": "VEC3"
    },
    {
      "bufferView": 2,
      "byteOffset": 5471100,
      "componentType": 5126,
      "count": 31805,
      "type": "VEC3"
    },
    {
      "bufferView": 1,
      "byteOffset": 1696480,
      "componentType": 5126,
      "count": 31805,
      "type": "VEC2"
    },
    {
      "bufferView": 0,
      "byteOffset": 4701744,
      "componentType": 5125,
      "count": 161172,
      "type": "SCALAR"
    }
  ],
  "asset": {
    "generator": "fab-model-conversion",
    "version": "2.0"
  },
  "bufferViews": [
    {
      "buffer": 0,
      "byteLength": 5346432,
      "target": 34963
    },
    {
      "buffer": 0,
      "byteLength": 1950920,
      "byteOffset": 5346432,
      "byteStride": 8,
      "target": 34962
    },
    {
      "buffer": 0,
      "byteLength": 5852760,
      "byteOffset": 7297352,
      "byteStride": 12,
      "target": 34962
    },
    {
      "buffer": 0,
      "byteLength": 28256,
      "byteOffset": 13150112,
      "byteStride": 16,
      "target": 34962
    }
  ],
  "buffers": [
    {
      "byteLength": 13178368,
      "uri": "scene.bin"
    }
  ],
  "images": [
    {
      "uri": "textures/Material369563_emissive.png"
    },
    {
      "uri": "textures/Material369563_normal.png"
    }
  ],
  "materials": [
    {
      "doubleSided": true,
      "emissiveTexture": {
        "index": 0
      },
      "name": "Material369563",
      "normalTexture": {
        "index": 1
      },
      "pbrMetallicRoughness": {
        "baseColorFactor": [
          0.0010274254089153144,
          0.0010274254089153144,
          0.0010274254089153144,
          1.0
        ],
        "metallicFactor": 0.0,
        "roughnessFactor": 0.6972772905086628
      }
    },
    {
      "doubleSided": true,
      "emissiveTexture": {
        "index": 0
      },
      "name": "W_Twill_98_Ctn_2Spa_260GSM_H_DF22018_FRONT_2641",
      "pbrMetallicRoughness": {
        "baseColorTexture": {
          "index": 0
        },
        "metallicFactor": 0.0,
        "roughnessFactor": 0.99220577136594
      }
    }
  ],
  "meshes": [
    {
      "name": "Object_0",
      "primitives": [
        {
          "attributes": {
            "NORMAL": 1,
            "POSITION": 0,
            "TANGENT": 2,
            "TEXCOORD_0": 3
          },
          "indices": 4,
          "material": 0,
          "mode": 4
        }
      ]
    },
    {
      "name": "Object_1",
      "primitives": [
        {
          "attributes": {
            "NORMAL": 6,
            "POSITION": 5,
            "TEXCOORD_0": 7
          },
          "indices": 8,
          "material": 1,
          "mode": 4
        }
      ]
    },
    {
      "name": "Object_2",
      "primitives": [
        {
          "attributes": {
            "NORMAL": 10,
            "POSITION": 9,
            "TEXCOORD_0": 11
          },
          "indices": 12,
          "material": 1,
          "mode": 4
        }
      ]
    },
    {
      "name": "Object_3",
      "primitives": [
        {
          "attributes": {
            "NORMAL": 14,
            "POSITION": 13,
            "TEXCOORD_0": 15
          },
          "indices": 16,
          "material": 1,
          "mode": 4
        }
      ]
    },
    {
      "name": "Object_4",
      "primitives": [
        {
          "attributes": {
            "NORMAL": 18,
            "POSITION": 17,
            "TEXCOORD_0": 19
          },
          "indices": 20,
          "material": 1,
          "mode": 4
        }
      ]
    },
    {
      "name": "Object_5",
      "primitives": [
        {
          "attributes": {
            "NORMAL": 22,
            "POSITION": 21,
            "TEXCOORD_0": 23
          },
          "indices": 24,
          "material": 1,
          "mode": 4
        }
      ]
    }
  ],
  "nodes": [
    {
      "children": [
        1
      ],
      "matrix": [
        1.0,
        0.0,
        0.0,
        0.0,
        0.0,
        2.220446049250313e-16,
        -1.0,
        0.0,
        0.0,
        1.0,
        2.220446049250313e-16,
        0.0,
        0.0,
        0.0,
        0.0,
        1.0
      ],
      "name": "Sketchfab_model"
    },
    {
      "children": [
        2,
        3,
        4,
        5,
        6,
        7
      ],
      "name": "Solid Color Formal Pant.obj.cleaner.materialmerger.gles"
    },
    {
      "mesh": 0,
      "name": "Object_2"
    },
    {
      "mesh": 1,
      "name": "Object_3"
    },
    {
      "mesh": 2,
      "name": "Object_4"
    },
    {
      "mesh": 3,
      "name": "Object_5"
    },
    {
      "mesh": 4,
      "name": "Object_6"
    },
    {
      "mesh": 5,
      "name": "Object_7"
    }
  ],
  "samplers": [
    {
      "magFilter": 9729,
      "minFilter": 9987,
      "wrapS": 10497,
      "wrapT": 10497
    }
  ],
  "scene": 0,
  "scenes": [
    {
      "name": "Sketchfab_Scene",
      "nodes": [
        0
      ]
    }
  ],
  "textures": [
    {
      "sampler": 0,
      "source": 0
    },
    {
      "sampler": 0,
      "source": 1
    }
  ]
}
